<mxfile host="app.diagrams.net" modified="2021-05-31T09:40:12.657Z" agent="5.0 (Windows NT 10.0; Win64; x64) AppleWebKit/537.36 (KHTML, like Gecko) Chrome/90.0.4430.212 Safari/537.36" etag="2vS1fTurh7EN980rHGkZ" version="14.7.3" type="github">
  <diagram id="VLqiQ4smgDCN_QXW5N22" name="Page-1">
    <mxGraphModel dx="2249" dy="747" grid="1" gridSize="10" guides="1" tooltips="1" connect="1" arrows="1" fold="1" page="1" pageScale="1" pageWidth="827" pageHeight="1169" math="0" shadow="0">
      <root>
        <mxCell id="0" />
        <mxCell id="1" parent="0" />
        <mxCell id="QrUBCONkjMTxRwLSOclj-4" value="" style="rounded=0;whiteSpace=wrap;html=1;fontSize=13;strokeWidth=2;" vertex="1" parent="1">
          <mxGeometry y="80" width="180" height="140" as="geometry" />
        </mxCell>
        <mxCell id="QrUBCONkjMTxRwLSOclj-2" value="&lt;div style=&quot;text-align: left ; font-size: 13px&quot;&gt;&lt;span style=&quot;font-size: 13px&quot;&gt;setClock&lt;/span&gt;&lt;/div&gt;&lt;div style=&quot;text-align: left ; font-size: 13px&quot;&gt;&lt;span style=&quot;font-size: 13px&quot;&gt;changeState&lt;/span&gt;&lt;/div&gt;&lt;div style=&quot;text-align: left ; font-size: 13px&quot;&gt;&lt;span style=&quot;font-size: 13px&quot;&gt;callSecurityCenter&lt;/span&gt;&lt;/div&gt;&lt;div style=&quot;text-align: left ; font-size: 13px&quot;&gt;&lt;span style=&quot;font-size: 13px&quot;&gt;recordLog&lt;/span&gt;&lt;/div&gt;" style="text;html=1;align=center;verticalAlign=middle;resizable=0;points=[];autosize=1;strokeColor=none;strokeWidth=2;fontSize=13;" vertex="1" parent="1">
          <mxGeometry y="150" width="120" height="70" as="geometry" />
        </mxCell>
        <mxCell id="QrUBCONkjMTxRwLSOclj-5" value="&amp;lt;&amp;lt;Interface&amp;gt;&amp;gt;&lt;br&gt;&lt;b&gt;&lt;i&gt;Context&lt;/i&gt;&lt;/b&gt;" style="rounded=0;whiteSpace=wrap;html=1;fontSize=13;strokeWidth=2;" vertex="1" parent="1">
          <mxGeometry y="80" width="180" height="50" as="geometry" />
        </mxCell>
        <mxCell id="QrUBCONkjMTxRwLSOclj-6" value="" style="rounded=0;whiteSpace=wrap;html=1;fontSize=13;strokeWidth=2;" vertex="1" parent="1">
          <mxGeometry y="130" width="180" height="20" as="geometry" />
        </mxCell>
        <mxCell id="QrUBCONkjMTxRwLSOclj-9" value="" style="rounded=0;whiteSpace=wrap;html=1;fontSize=13;strokeWidth=2;" vertex="1" parent="1">
          <mxGeometry y="280" width="180" height="140" as="geometry" />
        </mxCell>
        <mxCell id="QrUBCONkjMTxRwLSOclj-10" value="&lt;div style=&quot;text-align: left ; font-size: 13px&quot;&gt;&lt;span style=&quot;font-size: 13px&quot;&gt;setClock&lt;/span&gt;&lt;/div&gt;&lt;div style=&quot;text-align: left ; font-size: 13px&quot;&gt;&lt;span style=&quot;font-size: 13px&quot;&gt;changeState&lt;/span&gt;&lt;/div&gt;&lt;div style=&quot;text-align: left ; font-size: 13px&quot;&gt;&lt;span style=&quot;font-size: 13px&quot;&gt;callSecurityCenter&lt;/span&gt;&lt;/div&gt;&lt;div style=&quot;text-align: left ; font-size: 13px&quot;&gt;&lt;span style=&quot;font-size: 13px&quot;&gt;recordLog&lt;/span&gt;&lt;/div&gt;" style="text;html=1;align=center;verticalAlign=middle;resizable=0;points=[];autosize=1;strokeColor=none;strokeWidth=2;fontSize=13;" vertex="1" parent="1">
          <mxGeometry y="350" width="120" height="70" as="geometry" />
        </mxCell>
        <mxCell id="QrUBCONkjMTxRwLSOclj-11" value="&lt;b&gt;SafeFrame&lt;/b&gt;" style="rounded=0;whiteSpace=wrap;html=1;fontSize=13;strokeWidth=2;" vertex="1" parent="1">
          <mxGeometry y="280" width="180" height="50" as="geometry" />
        </mxCell>
        <mxCell id="QrUBCONkjMTxRwLSOclj-12" value="- state" style="rounded=0;whiteSpace=wrap;html=1;fontSize=13;strokeWidth=2;align=left;" vertex="1" parent="1">
          <mxGeometry y="330" width="180" height="20" as="geometry" />
        </mxCell>
        <mxCell id="QrUBCONkjMTxRwLSOclj-13" value="" style="rounded=0;whiteSpace=wrap;html=1;fontSize=13;strokeWidth=2;" vertex="1" parent="1">
          <mxGeometry x="320" y="280" width="180" height="140" as="geometry" />
        </mxCell>
        <mxCell id="QrUBCONkjMTxRwLSOclj-14" value="&lt;div style=&quot;text-align: left ; font-size: 13px&quot;&gt;&lt;span style=&quot;font-size: 13px&quot;&gt;setClock&lt;/span&gt;&lt;/div&gt;&lt;div style=&quot;text-align: left ; font-size: 13px&quot;&gt;&lt;span style=&quot;font-size: 13px&quot;&gt;changeState&lt;/span&gt;&lt;/div&gt;&lt;div style=&quot;text-align: left ; font-size: 13px&quot;&gt;&lt;span style=&quot;font-size: 13px&quot;&gt;callSecurityCenter&lt;/span&gt;&lt;/div&gt;&lt;div style=&quot;text-align: left ; font-size: 13px&quot;&gt;&lt;span style=&quot;font-size: 13px&quot;&gt;recordLog&lt;/span&gt;&lt;/div&gt;" style="text;html=1;align=center;verticalAlign=middle;resizable=0;points=[];autosize=1;strokeColor=none;strokeWidth=2;fontSize=13;" vertex="1" parent="1">
          <mxGeometry x="320" y="350" width="120" height="70" as="geometry" />
        </mxCell>
        <mxCell id="QrUBCONkjMTxRwLSOclj-15" value="&amp;lt;&amp;lt;Interface&amp;gt;&amp;gt;&lt;br&gt;&lt;b&gt;&lt;i&gt;Context&lt;/i&gt;&lt;/b&gt;" style="rounded=0;whiteSpace=wrap;html=1;fontSize=13;strokeWidth=2;" vertex="1" parent="1">
          <mxGeometry x="320" y="280" width="180" height="50" as="geometry" />
        </mxCell>
        <mxCell id="QrUBCONkjMTxRwLSOclj-16" value="" style="rounded=0;whiteSpace=wrap;html=1;fontSize=13;strokeWidth=2;" vertex="1" parent="1">
          <mxGeometry x="320" y="330" width="180" height="20" as="geometry" />
        </mxCell>
      </root>
    </mxGraphModel>
  </diagram>
</mxfile>
